<svg id="Graphic_Elements" data-name="Graphic Elements" xmlns="http://www.w3.org/2000/svg" xmlns:xlink="http://www.w3.org/1999/xlink" viewBox="0 0 204.39 204.39"><defs><style>.cls-1{fill:url(#linear-gradient);}</style><linearGradient id="linear-gradient" x1="863.7" y1="229.78" x2="1068.09" y2="229.78" gradientUnits="userSpaceOnUse"><stop offset="0" stop-color="#4d1fb5"/><stop offset="0.06" stop-color="#5821ba"/><stop offset="0.51" stop-color="#a232df"/><stop offset="0.84" stop-color="#d13df6"/><stop offset="1" stop-color="#e341ff"/></linearGradient></defs><title>14</title><path class="cls-1" d="M1065.79,279.25a.9.9,0,0,0-.23,0c-1.39.13-2.78.2-4.16.2a27.73,27.73,0,0,1-14.06-3.53,47.43,47.43,0,0,1-13.48-12.11c-5.51-7-9.86-15-14.2-21.73a140.91,140.91,0,0,0-8.57-12.31,142.51,142.51,0,0,0,8.57-12.32c4.34-6.7,8.69-14.77,14.2-21.73a47.14,47.14,0,0,1,13.48-12.11,27.53,27.53,0,0,1,14.06-3.53c1.38,0,2.77.07,4.16.2l.23,0a2.33,2.33,0,0,0,1.56-4,64.88,64.88,0,0,0-9.33-7.45c-5.24-3.4-11.13-5.8-17.51-5.8-.32,0-.64,0-1,0a22.84,22.84,0,0,0-9.39,2.44,22.75,22.75,0,0,0,2.44-9.39c.27-6.73-2.19-13-5.77-18.47a66,66,0,0,0-7.44-9.32,2.23,2.23,0,0,0-1.67-.74,2.32,2.32,0,0,0-2.34,2.53c.56,6.16.1,12.15-3.34,18.22a46.79,46.79,0,0,1-12.1,13.47c-7,5.51-15,9.88-21.74,14.2a137.44,137.44,0,0,0-12.3,8.58A140.54,140.54,0,0,0,953.58,176c-6.7-4.32-14.76-8.69-21.74-14.2a47.23,47.23,0,0,1-12.1-13.47c-3.42-6.07-3.9-12.06-3.34-18.22a2.31,2.31,0,0,0-2.32-2.53,2.24,2.24,0,0,0-1.68.74,66.77,66.77,0,0,0-7.45,9.32c-3.56,5.51-6,11.74-5.77,18.47a22.75,22.75,0,0,0,2.44,9.39,22.84,22.84,0,0,0-9.39-2.44c-.32,0-.64,0-1,0-6.36,0-12.25,2.4-17.51,5.8a66,66,0,0,0-9.33,7.45,2.33,2.33,0,0,0,1.58,4l.21,0c1.39-.13,2.78-.2,4.16-.2a27.65,27.65,0,0,1,14.08,3.53,47.06,47.06,0,0,1,13.46,12.11c5.51,7,9.88,15,14.21,21.73a142.29,142.29,0,0,0,8.56,12.32,138.56,138.56,0,0,0-8.56,12.31c-4.33,6.7-8.7,14.75-14.21,21.73a47.36,47.36,0,0,1-13.46,12.11,27.85,27.85,0,0,1-14.08,3.53c-1.38,0-2.77-.07-4.16-.2a.75.75,0,0,0-.21,0,2.33,2.33,0,0,0-1.58,4,66,66,0,0,0,9.33,7.45c5.26,3.4,11.13,5.8,17.51,5.8.32,0,.64,0,1,0a22.69,22.69,0,0,0,9.39-2.45,22.84,22.84,0,0,0-2.44,9.4c-.26,6.73,2.21,13,5.77,18.47a67.36,67.36,0,0,0,7.45,9.32,2.24,2.24,0,0,0,1.68.74,2.31,2.31,0,0,0,2.32-2.53c-.56-6.16-.08-12.17,3.34-18.22a47.1,47.1,0,0,1,12.1-13.47c7-5.51,15-9.88,21.74-14.2A142.29,142.29,0,0,0,965.9,275a139.13,139.13,0,0,0,12.3,8.56c6.72,4.32,14.77,8.69,21.74,14.2a46.66,46.66,0,0,1,12.1,13.47c3.44,6,3.9,12.06,3.34,18.22a2.32,2.32,0,0,0,2.34,2.53,2.23,2.23,0,0,0,1.67-.74,66.56,66.56,0,0,0,7.44-9.32c3.58-5.51,6-11.74,5.77-18.47a22.84,22.84,0,0,0-2.44-9.4,22.69,22.69,0,0,0,9.39,2.45c.32,0,.64,0,1,0,6.38,0,12.27-2.4,17.51-5.8a64.88,64.88,0,0,0,9.33-7.45A2.33,2.33,0,0,0,1065.79,279.25Zm-26-110h.72c4.54,0,9.17,1.57,14.18,4.8l.62.42a33,33,0,0,0-11,3.85c-5.43,3.07-10.42,7.54-15.27,13.65a156.66,156.66,0,0,0-10.62,15.91c-1.37,2.22-2.64,4.32-3.93,6.31l-.49.75c-2.14,3.33-4.45,6.93-7,10.25a31.31,31.31,0,0,0-10.53-7.24c1-1.08,2-2.26,3-3.49a125.14,125.14,0,0,0,7.94-11.49c.94-1.49,1.84-3,2.73-4.44,1.35-2.21,2.64-4.32,3.93-6.29l.54-.84C1020.77,181.69,1028.54,169.65,1039.79,169.21ZM994.58,249a116.19,116.19,0,0,1,7.55,10.93c2.33,3.72,4.52,7.42,6.7,10.8,1.19,1.83,2.44,3.8,3.82,5.81-2-1.35-4-2.61-5.81-3.8-3.4-2.19-7.1-4.37-10.82-6.69a118.22,118.22,0,0,1-10.93-7.56,56,56,0,0,1-5.76-5.19c0-.15,0-.3,0-.45A28,28,0,0,0,977.12,241,28.41,28.41,0,0,0,988,243.27c.32,0,.64,0,1,0a3.4,3.4,0,0,0,.45,0A59.44,59.44,0,0,1,994.58,249Zm-42.16,3.85c0,.15,0,.3,0,.45a56,56,0,0,1-5.76,5.19A117.94,117.94,0,0,1,935.78,266c-3.74,2.32-7.44,4.5-10.82,6.69-1.82,1.19-3.8,2.45-5.81,3.8,1.36-2,2.61-4,3.8-5.81,2.19-3.38,4.37-7.08,6.7-10.8A120.09,120.09,0,0,1,937.2,249a59.44,59.44,0,0,1,5.19-5.76,3.4,3.4,0,0,0,.45,0c.32,0,.66,0,1,0A28.4,28.4,0,0,0,954.66,241,28,28,0,0,0,952.42,252.83ZM937.2,210.59a118.86,118.86,0,0,1-7.55-10.94c-2.33-3.71-4.51-7.41-6.7-10.81-1.17-1.83-2.43-3.8-3.78-5.8,2,1.38,4,2.63,5.79,3.81,3.38,2.19,7.08,4.37,10.82,6.69a119.8,119.8,0,0,1,10.91,7.55,58.41,58.41,0,0,1,5.76,5.19c0,.16,0,.31,0,.46a28,28,0,0,0,2.24,11.82,28.4,28.4,0,0,0-10.85-2.26h-1a3.42,3.42,0,0,0-.45,0A59.44,59.44,0,0,1,937.2,210.59Zm42.16-3.85c0-.15,0-.3,0-.46a58.41,58.41,0,0,1,5.76-5.19A120.09,120.09,0,0,1,996,193.54c3.72-2.32,7.42-4.5,10.82-6.69,1.82-1.18,3.8-2.43,5.79-3.81-1.36,2-2.61,4-3.8,5.8-2.18,3.4-4.37,7.1-6.7,10.81a115,115,0,0,1-7.55,10.94,59.44,59.44,0,0,1-5.19,5.76,3.27,3.27,0,0,0-.44,0h-1a28.41,28.41,0,0,0-10.86,2.26A28,28,0,0,0,979.36,206.74Zm-4.83,23a8.64,8.64,0,1,1-8.64-8.63A8.64,8.64,0,0,1,974.53,229.78Zm-6.86-18.34a28.68,28.68,0,0,0-1.77,3.62,27.91,27.91,0,0,0-1.78-3.6,45.33,45.33,0,0,0-5.2-7.25c.92-4.34,3.56-8.11,7-11.45,3.41,3.36,6,7.13,7,11.45A46,46,0,0,0,967.67,211.44Zm-27.36,11.37a45.85,45.85,0,0,0,7.25,5.21,31.09,31.09,0,0,0,3.57,1.76,32.89,32.89,0,0,0-3.57,1.77,45.85,45.85,0,0,0-7.25,5.21c-4.3-.92-8.08-3.55-11.45-7C932.23,226.36,936,223.73,940.31,222.81Zm23.81,25.3a32.06,32.06,0,0,0,1.78-3.57,28.73,28.73,0,0,0,1.76,3.57,45.33,45.33,0,0,0,5.2,7.25c-.92,4.3-3.55,8.09-7,11.47-3.42-3.37-6.06-7.15-7-11.47A45.33,45.33,0,0,0,964.12,248.11Zm27.35-11.35a44.88,44.88,0,0,0-7.24-5.21,33.68,33.68,0,0,0-3.56-1.77,32.51,32.51,0,0,0,3.55-1.76,45.85,45.85,0,0,0,7.25-5.21c4.33.92,8.08,3.55,11.45,7C999.55,233.21,995.79,235.84,991.47,236.76Zm-10.69-55.09.77-.48c2-1.29,4.07-2.57,6.3-3.92a159.62,159.62,0,0,0,15.91-10.63c6.11-4.86,10.58-9.85,13.64-15.27a33.32,33.32,0,0,0,3.85-11c.15.22.29.43.42.64,3.42,5.27,5,10.14,4.81,14.9-.44,11.25-12.48,19-22.16,25.25l-.82.53c-2,1.29-4.08,2.58-6.31,3.94-1.45.88-2.94,1.79-4.44,2.73a126.85,126.85,0,0,0-11.48,7.93q-1.86,1.48-3.5,3a31.68,31.68,0,0,0-7.23-10.53C973.85,186.13,977.45,183.82,980.78,181.67ZM910.13,141l.4-.64a32.94,32.94,0,0,0,3.87,11A52.8,52.8,0,0,0,928,166.64a157.1,157.1,0,0,0,15.89,10.63c2.23,1.35,4.34,2.63,6.31,3.92l.77.48c3.34,2.15,6.94,4.47,10.25,7.05A31.69,31.69,0,0,0,954,199.24q-1.66-1.49-3.5-3A128.35,128.35,0,0,0,939,188.34c-1.49-.94-3-1.85-4.43-2.73-2.21-1.36-4.31-2.65-6.3-3.94l-.82-.53c-9.68-6.23-21.71-14-22.15-25.25C905.14,151.13,906.71,146.26,910.13,141Zm7.65,73.9-.49-.75c-1.27-2-2.56-4.09-3.92-6.31a155.13,155.13,0,0,0-10.63-15.91,52.9,52.9,0,0,0-15.27-13.65,32.7,32.7,0,0,0-11-3.85l.64-.42c5-3.23,9.62-4.8,14.16-4.8H892c11.25.44,19,12.48,25.27,22.14l.53.84c1.28,2,2.57,4.07,3.92,6.29.89,1.46,1.79,3,2.73,4.44a126.83,126.83,0,0,0,7.95,11.5c1,1.24,2,2.4,3,3.5a31.13,31.13,0,0,0-10.52,7.22C922.25,221.82,919.92,218.22,917.78,214.89ZM892,290.35c-.23,0-.48,0-.72,0-4.54,0-9.17-1.57-14.18-4.8a5.19,5.19,0,0,0-.62-.42,32.7,32.7,0,0,0,11-3.85,53,53,0,0,0,15.27-13.65,156.23,156.23,0,0,0,10.63-15.91c1.36-2.22,2.65-4.33,3.92-6.31l.49-.75c2.14-3.33,4.47-6.93,7.06-10.25a31.83,31.83,0,0,0,10.5,7.22q-1.49,1.65-3,3.5a125.44,125.44,0,0,0-7.95,11.5c-.94,1.49-1.84,3-2.73,4.44-1.35,2.21-2.64,4.32-3.92,6.29l-.53.84C911,277.88,903.24,289.92,892,290.35Zm59-12.45-.77.48c-2,1.28-4.08,2.56-6.31,3.92A156.23,156.23,0,0,0,928,292.93,53,53,0,0,0,914.4,308.2a32.84,32.84,0,0,0-3.87,11c-.14-.2-.27-.42-.42-.63-3.4-5.26-5-10.13-4.79-14.89.44-11.25,12.47-19,22.15-25.26l.82-.52c2-1.29,4.09-2.58,6.3-3.94,1.47-.88,2.94-1.79,4.43-2.73a126.85,126.85,0,0,0,11.51-8q1.83-1.45,3.5-3a31.26,31.26,0,0,0,7.23,10.51C958,273.41,954.35,275.75,951,277.9Zm70.66,40.68-.42.62a33.22,33.22,0,0,0-3.85-11c-3.06-5.42-7.53-10.41-13.64-15.27a156.23,156.23,0,0,0-15.91-10.63c-2.23-1.36-4.32-2.64-6.31-3.92l-.76-.48c-3.33-2.15-6.93-4.47-10.24-7.07a31.26,31.26,0,0,0,7.21-10.5q1.66,1.49,3.52,3a128.93,128.93,0,0,0,11.48,7.93c1.5.94,3,1.85,4.44,2.73,2.23,1.36,4.32,2.65,6.31,3.94l.82.52c9.68,6.24,21.72,14,22.16,25.26C1026.64,308.44,1025.09,313.31,1021.67,318.58Zm33-33c-5,3.23-9.64,4.8-14.18,4.8-.24,0-.47,0-.72,0-11.25-.43-19-12.47-25.25-22.13l-.54-.84c-1.29-2-2.58-4.08-3.93-6.29-.89-1.48-1.79-2.95-2.73-4.44a125.17,125.17,0,0,0-7.94-11.5c-1-1.23-2-2.4-3-3.5a31.77,31.77,0,0,0,10.51-7.22c2.6,3.32,4.91,6.92,7,10.25l.49.75c1.29,2,2.56,4.09,3.93,6.31a156.23,156.23,0,0,0,10.63,15.91,53,53,0,0,0,15.26,13.65,33,33,0,0,0,11,3.85Z" transform="translate(-863.7 -127.59)"/></svg>